<svg width="33" height="29" viewBox="0 0 33 29" fill="none" xmlns="http://www.w3.org/2000/svg">
<path d="M29.7598 0.455078C31.3887 0.724609 32.2031 1.24023 32.2031 2.00195C32.2031 3.30273 29.8477 5.46484 25.1367 8.48828C23.2383 9.70703 21.1875 10.8965 18.9844 12.0566C19.4062 12.4785 19.7812 13.1406 20.1094 14.043C20.4492 14.9453 20.7129 15.6953 20.9004 16.293C21.0996 16.8906 21.3164 17.4824 21.5508 18.0684C21.7852 18.6543 22.043 19.2109 22.3242 19.7383C22.6055 20.2656 22.9336 20.7344 23.3086 21.1445C24.1289 22.0234 25.1016 22.4629 26.2266 22.4629C27.1055 22.4629 28.125 22.0645 29.2852 21.2676C30.4102 20.4941 31.3125 19.5977 31.9922 18.5781C32.5195 18.543 32.7832 18.7598 32.7832 19.2285C32.7832 19.7676 32.4492 20.5586 31.7812 21.6016C31.125 22.6445 30.5098 23.4883 29.9355 24.1328C29.373 24.7656 28.7578 25.3516 28.0898 25.8906C27.4336 26.4297 26.7422 26.8984 26.0156 27.2969C24.4453 28.1289 22.9922 28.5449 21.6562 28.5449C20.332 28.5449 19.2773 28.3926 18.4922 28.0879C17.7188 27.7832 17.0684 27.373 16.541 26.8574C16.0137 26.3301 15.5977 25.7266 15.293 25.0469C14.9883 24.3555 14.748 23.6348 14.5723 22.8848C14.3965 22.123 14.2676 21.3496 14.1855 20.5645C14.1035 19.7676 14.0273 19.0117 13.957 18.2969C13.7695 16.5508 13.5117 15.3789 13.1836 14.7812C12.5977 15.0156 12.0879 15.1914 11.6543 15.3086C11.2441 16.457 10.8398 17.582 10.4414 18.6836C10.0547 19.7852 9.67383 20.8281 9.29883 21.8125C8.92383 22.7852 8.55469 23.6875 8.19141 24.5195C7.83984 25.3516 7.49414 26.0664 7.1543 26.6641C6.43945 27.9297 5.80078 28.5625 5.23828 28.5625C3.97266 28.5625 2.57812 28.293 1.05469 27.7539C0.644531 27.6133 0.351562 27.4727 0.175781 27.332C0.925781 26.6641 1.86328 25.3574 2.98828 23.4121C4.11328 21.4668 5.0625 19.7793 5.83594 18.3496C6.60938 16.9199 7.38867 15.4668 8.17383 13.9902C8.95898 12.5137 9.73242 11.0605 10.4941 9.63086C11.2676 8.20117 11.9883 6.89453 12.6562 5.71094C14.168 3.05078 15.252 1.42188 15.9082 0.824219C16.2832 0.484375 16.8164 0.484375 17.5078 0.824219C17.6953 0.917969 17.8711 1.03516 18.0352 1.17578C16.6992 2.99219 15.0996 6.2793 13.2363 11.0371C17.1387 10.0059 20.7891 8.40625 24.1875 6.23828C26.25 4.92578 27.7852 3.61328 28.793 2.30078C29.2969 1.65625 29.6191 1.04102 29.7598 0.455078Z" fill="url(#paint0_linear)"/>
<defs>
<linearGradient id="paint0_linear" x1="26.2493" y1="-2.79412" x2="-9.61303" y2="13.6593" gradientUnits="userSpaceOnUse">
<stop stop-color="#472AFA"/>
<stop offset="1" stop-color="#0ED4E0"/>
</linearGradient>
</defs>
</svg>
